Coordinates
version=1
nRows=10
nColumns=63
inDegrees=yes

Units are S.I. units (second, meters, Newtons, ...)
If the header above contains a line with 'inDegrees', this indicates whether rotational values are in degrees (yes) or radians (no).

endheader
time	pelvis_tilt	pelvis_list	pelvis_rotation	pelvis_tx	pelvis_ty	pelvis_tz	hip_flexion_r	hip_adduction_r	hip_rotation_r	knee_angle_r	knee_angle_r_beta	ankle_angle_r	subtalar_angle_r	mtp_angle_r	hip_flexion_l	hip_adduction_l	hip_rotation_l	knee_angle_l	knee_angle_l_beta	ankle_angle_l	subtalar_angle_l	mtp_angle_l	L5_S1_Flex_Ext	L5_S1_Lat_Bending	L5_S1_axial_rotation	L4_L5_Flex_Ext	L4_L5_Lat_Bending	L4_L5_axial_rotation	L3_L4_Flex_Ext	L3_L4_Lat_Bending	L3_L4_axial_rotation	L2_L3_Flex_Ext	L2_L3_Lat_Bending	L2_L3_axial_rotation	L1_L2_Flex_Ext	L1_L2_Lat_Bending	L1_L2_axial_rotation	L1_T12_Flex_Ext	L1_T12_Lat_Bending	L1_T12_axial_rotation	Abs_r3	Abs_r2	Abs_r1	Abs_t1	Abs_t2	neck_flexion	neck_bending	neck_rotation	arm_flex_r	arm_add_r	arm_rot_r	elbow_flex_r	pro_sup_r	wrist_flex_r	wrist_dev_r	arm_flex_l	arm_add_l	arm_rot_l	elbow_flex_l	pro_sup_l	wrist_flex_l	wrist_dev_l
      1.01694915	     -0.74359225	     -2.69670466	    109.44435994	      0.39274057	      0.71967934	      1.03567662	      7.07982150	     -3.43839668	    -26.41230024	     17.25318303	      0.30112485	     28.99147338	      1.25954647	      0.00000000	      6.59081738	      0.76493370	      7.38167378	      9.82684055	      0.17151072	     25.99919912	     10.03556125	      0.00000000	      0.08915269	     -0.11586560	     -2.46468164	      0.16556546	     -0.15410125	     -2.61872424	      0.14646896	     -0.28171562	     -2.61872424	      0.10189261	     -0.28171562	     -2.15659644	      0.08278719	     -0.23627313	     -2.00255383	      0.05094185	     -0.17947581	     -1.84851123	      0.63680875	     -1.31069483	    -13.70781989	      0.00000000	      0.00000000	     26.12188768	      7.43131388	      1.88217661	      6.50729957	     -6.69988836	     36.43824887	     43.57831163	     56.79342654	     10.74081684	     26.98681532	      5.89057857	     -8.90258021	     40.21078622	     53.76853647	     78.95333927	      8.95416536	     16.32570828
      1.03389831	     -0.80545387	     -2.74913924	    109.46383322	      0.39277771	      0.71948735	      1.03572140	      7.09895225	     -3.50997218	    -26.26738241	     17.22275494	      0.30059378	     28.84152607	      1.43936503	      0.00000000	      6.66397674	      0.83621529	      7.00158061	      9.87649674	      0.17237739	     26.05129953	     10.42126661	      0.00000000	      0.08445847	     -0.12386453	     -2.48971833	      0.15684783	     -0.16473982	     -2.64532573	      0.13875682	     -0.30116421	     -2.64532573	      0.09652759	     -0.30116421	     -2.17850354	      0.07842814	     -0.25258454	     -2.02289614	      0.04825957	     -0.19186615	     -1.86728875	      0.60327842	     -1.40118030	    -13.84706644	      0.00000000	      0.00000000	     25.71452653	      7.73745757	      2.12519444	      6.62368912	     -6.70799851	     36.80767872	     43.51364404	     56.22203669	     10.61943247	     26.84913342	      5.77638087	     -9.05736665	     40.30018560	     53.84619796	     78.18788788	      8.84095311	     16.02654593
      1.05084746	     -0.85916924	     -2.78400860	    109.43713658	      0.39283656	      0.71934202	      1.03570584	      7.10974717	     -3.50543535	    -25.68986437	     17.14224086	      0.29918854	     28.67427435	      1.08265168	      0.00000000	      6.72294114	      0.88336236	      6.49972645	      9.92709407	      0.17326048	     26.12728709	     10.89704316	      0.00000000	      0.08172905	     -0.12882118	     -2.48498845	      0.15177901	     -0.17133217	     -2.64030023	      0.13427265	     -0.31321581	     -2.64030023	      0.09340813	     -0.31321581	     -2.17436489	      0.07589359	     -0.26269215	     -2.01905311	      0.04669998	     -0.19954400	     -1.86374134	      0.58378240	     -1.45725093	    -13.82076025	      0.00000000	      0.00000000	     25.38979420	      7.88866190	      2.29590738	      6.57691599	     -6.69599666	     36.75854917	     43.64078903	     56.09841822	     10.19546350	     27.21965037	      5.78167319	     -9.24167911	     40.77029620	     53.75991236	     77.28503073	      8.76891861	     15.48580037
      1.06779661	     -0.95620580	     -2.81920197	    109.48332933	      0.39272243	      0.71927359	      1.03569163	      7.06164213	     -3.65376563	    -25.88234739	     17.11847085	      0.29877368	     28.77516809	      1.63391023	      0.00000000	      6.72361462	      1.03709316	      6.77126163	      9.89149157	      0.17263910	     26.06541140	     10.49227472	      0.00000000	      0.07983935	     -0.13920961	     -2.49348632	      0.14826966	     -0.18514879	     -2.64932921	      0.13116807	     -0.33847426	     -2.64932921	      0.09124840	     -0.33847426	     -2.18180053	      0.07413882	     -0.28387625	     -2.02595763	      0.04562021	     -0.21563569	     -1.87011474	      0.57028451	     -1.57476700	    -13.86802286	      0.00000000	      0.00000000	     25.20728819	      8.00095893	      2.38292931	      6.60137610	     -6.64585765	     36.82567932	     43.55572149	     56.38570492	     10.21554435	     27.38746963	      5.76601978	     -9.52209571	     41.35507394	     53.79170634	     76.71951178	      8.48967219	     14.96652808
      1.08474576	     -1.03467339	     -2.85435348	    109.58830940	      0.39257219	      0.71921500	      1.03566937	      6.97811807	     -3.81266098	    -26.41252830	     17.07169410	      0.29795727	     29.03245366	      2.48867494	      0.00000000	      6.75152358	      1.13608224	      6.67561677	      9.88510775	      0.17252768	     26.08216853	     10.68907243	      0.00000000	      0.08178872	     -0.14839723	     -2.51439916	      0.15188983	     -0.19736831	     -2.67154911	      0.13437069	     -0.36081301	     -2.67154911	      0.09347633	     -0.36081301	     -2.20009927	      0.07594901	     -0.30261162	     -2.04294932	      0.04673407	     -0.22986730	     -1.88579937	      0.58420865	     -1.67869909	    -13.98433381	      0.00000000	      0.00000000	     25.11843476	      8.06934703	      2.45212062	      6.64636395	     -6.57162074	     36.88972367	     43.32861305	     57.12132858	     10.73741874	     27.41800541	      5.72070072	     -9.80969988	     41.86714835	     53.89434835	     76.58247003	      8.18447552	     14.56953299
      1.10169492	     -1.13606392	     -2.78162048	    109.36641391	      0.39282609	      0.71928709	      1.03554744	      6.86963113	     -3.80669514	    -25.79644268	     17.00209519	      0.29674254	     29.07187337	      2.03575735	      0.00000000	      6.57991490	      1.21359322	      6.67760769	      9.76306097	      0.17039756	     26.02726600	     10.30509033	      0.00000000	      0.06553622	     -0.15791271	     -2.46697807	      0.12170732	     -0.21002391	     -2.62116420	      0.10766946	     -0.38394897	     -2.62116420	      0.07490135	     -0.38394897	     -2.15860581	      0.06085694	     -0.32201561	     -2.00441968	      0.03744740	     -0.24460680	     -1.85023355	      0.46811868	     -1.78634021	    -13.72059193	      0.00000000	      0.00000000	     25.17980932	      7.92065997	      2.17484270	      6.75047866	     -6.59588069	     37.33587649	     43.25175820	     56.14120131	     10.31934027	     27.68118646	      5.77102281	    -10.07568245	     42.46447213	     54.01488106	     75.92208749	      7.57048902	     14.33834963
      1.11864407	     -1.23352515	     -2.79762863	    109.11303056	      0.39320545	      0.71937381	      1.03551587	      6.76459260	     -3.76043124	    -25.08080815	     16.68382960	      0.29118776	     28.86894622	      1.45488812	      0.00000000	      6.53816814	      1.32007408	      6.68894167	      9.72686443	      0.16976581	     25.86784857	      9.80686166	      0.00000000	      0.06641046	     -0.16956795	     -2.39160914	      0.12333087	     -0.22552538	     -2.54108471	      0.10910575	     -0.41228752	     -2.54108471	      0.07590052	     -0.41228752	     -2.09265800	      0.06166876	     -0.34578297	     -1.94318243	      0.03794694	     -0.26266076	     -1.79370686	      0.47436330	     -1.91818661	    -13.30141257	      0.00000000	      0.00000000	     25.22176524	      8.04333354	      2.19719099	      6.96170503	     -6.84766501	     38.39597468	     43.27304242	     55.58033547	      9.79311832	     26.93218198	      6.25776380	    -10.45697972	     43.90443150	     53.87788184	     74.85655147	      7.26467214	     13.70675122
      1.13559322	     -1.22446094	     -2.90324525	    109.67261787	      0.39221087	      0.71914248	      1.03573396	      6.72126639	     -4.05258022	    -26.80210615	     16.84151997	      0.29393997	     29.23700889	      2.90166218	      0.00000000	      6.68242656	      1.38254753	      6.77061714	      9.73104429	      0.16983876	     25.97035137	     10.59201949	      0.00000000	      0.08281307	     -0.16447243	     -2.50544120	      0.15379215	     -0.21874833	     -2.66203128	      0.13605359	     -0.39989826	     -2.66203128	      0.09464706	     -0.39989826	     -2.19226105	      0.07690022	     -0.33539217	     -2.03567098	      0.04731939	     -0.25476779	     -1.87908090	      0.59152547	     -1.86054498	    -13.93451233	      0.00000000	      0.00000000	     25.17746089	      7.81382109	      2.47651862	      6.65996390	     -6.55608708	     36.78706030	     43.39818320	     57.48542427	     10.72154555	     27.78459723	      5.63266450	    -10.13105196	     42.11907371	     54.02756314	     80.75895456	      8.01475124	     12.51686239
      1.15254237	     -1.30568263	     -2.93014947	    109.76396205	      0.39208544	      0.71915334	      1.03575891	      6.60610392	     -4.10733299	    -26.74793435	     16.70540340	      0.29156429	     29.13149846	      2.57476483	      0.00000000	      6.65657058	      1.46166582	      6.67969576	      9.68516927	      0.16903809	     25.94946932	     10.87961812	      0.00000000	      0.08529942	     -0.17357816	     -2.49622993	      0.15840956	     -0.23085896	     -2.65224430	      0.14013842	     -0.42203794	     -2.65224430	      0.09748871	     -0.42203794	     -2.18420118	      0.07920904	     -0.35396059	     -2.02818681	      0.04874009	     -0.26887257	     -1.87217244	      0.60928525	     -1.96355088	    -13.88328198	      0.00000000	      0.00000000	     25.15334545	      7.60111299	      2.27946327	      6.57424355	     -6.54749869	     36.39084015	     43.68552014	     56.53972675	     10.26899116	     28.33829832	      5.72736182	    -10.23478090	     42.43231661	     54.10677044	     81.74131382	      7.40882483	     11.83692271
      1.16949153	     -1.38963602	     -2.96648337	    109.66805736	      0.39206825	      0.71904376	      1.03579373	      6.51556353	     -4.20448480	    -26.84494504	     16.62138290	      0.29009786	     29.20887698	      2.73966495	      0.00000000	      6.60782712	      1.56583296	      6.82119059	      9.59703881	      0.16749993	     25.87304593	     10.58298411	      0.00000000	      0.08854469	     -0.18054972	     -2.46510406	      0.16443634	     -0.24013113	     -2.61917307	      0.14547007	     -0.43898859	     -2.61917307	      0.10119772	     -0.43898859	     -2.15696605	      0.08222260	     -0.36817699	     -2.00289705	      0.05059443	     -0.27967152	     -1.84882805	      0.63246585	     -2.04241455	    -13.71016926	      0.00000000	      0.00000000	     25.18315471	      7.51123789	      2.30531496	      6.51093556	     -6.53580817	     35.85278411	     44.02103264	     56.45644509	     10.14098934	     28.82787231	      5.63679147	    -10.13913409	     42.01999014	     54.18949396	     83.08135261	      7.54769127	     11.46064639
